<svg width="20" height="20" viewBox="0 0 20 20" fill="none" xmlns="http://www.w3.org/2000/svg">
<path d="M9.9998 18.3999C9.7498 18.3999 9.49982 18.3416 9.29148 18.2249C7.73315 17.3749 4.9998 16.4749 3.28313 16.2499L3.04148 16.2166C1.94982 16.0833 1.0498 15.0583 1.0498 13.9499V3.88324C1.0498 3.22491 1.30814 2.62493 1.78314 2.1916C2.25814 1.75827 2.87478 1.54992 3.52478 1.60826C5.34978 1.75826 8.11646 2.67493 9.68313 3.64994L9.88312 3.76661C9.94145 3.79161 10.0665 3.79995 10.1165 3.76661L10.2498 3.68325C10.8081 3.33325 11.5081 2.99157 12.2748 2.68324C12.4664 2.60824 12.6831 2.63325 12.8581 2.74992C13.0331 2.86659 13.1331 3.05825 13.1331 3.26658V5.49991L13.8248 5.04159C14.0332 4.89992 14.3081 4.89992 14.5164 5.04159L15.2081 5.49991V2.31662C15.2081 2.01662 15.4248 1.75825 15.7165 1.69991C15.9581 1.65825 16.1998 1.62492 16.4165 1.60826C16.4331 1.60826 16.4998 1.60826 16.5165 1.60826C17.1248 1.55826 17.7498 1.76661 18.2165 2.19994C18.6915 2.63328 18.9498 3.23325 18.9498 3.89158V13.9499C18.9498 15.0666 18.0498 16.0833 16.9498 16.2166L16.6748 16.2499C14.9581 16.4749 12.2081 17.3833 10.6831 18.2249C10.4998 18.3416 10.2498 18.3999 9.9998 18.3999ZM3.31645 2.84158C3.04978 2.84158 2.80814 2.93325 2.61648 3.10825C2.40814 3.29991 2.29146 3.57491 2.29146 3.88324V13.9499C2.29146 14.4416 2.71648 14.9166 3.19148 14.9832L3.44147 15.0166C5.31647 15.2666 8.19148 16.2083 9.85814 17.1249C9.93314 17.1583 10.0414 17.1666 10.0831 17.1499C11.7581 16.2249 14.6415 15.275 16.5248 15.025L16.8081 14.9916C17.2831 14.9333 17.7081 14.4499 17.7081 13.9583V3.89992C17.7081 3.59159 17.5915 3.32493 17.3831 3.12493C17.1748 2.93326 16.8832 2.84159 16.5832 2.85826C16.5582 2.85826 16.4831 2.85826 16.4665 2.85826V6.6666C16.4665 6.89993 16.3415 7.10824 16.1331 7.21658C15.9248 7.32491 15.6832 7.31659 15.4915 7.18326L14.1748 6.30827L12.8581 7.18326C12.6665 7.30826 12.4248 7.32491 12.2164 7.21658C12.0164 7.10824 11.8831 6.89993 11.8831 6.6666V4.22494C11.5248 4.39994 11.1998 4.57493 10.9164 4.7416L10.7831 4.82491C10.3248 5.10825 9.67481 5.10825 9.23314 4.83325L9.03315 4.70828C7.62482 3.82495 5.05812 2.97491 3.42478 2.84158C3.38312 2.84158 3.34978 2.84158 3.31645 2.84158Z" fill="#BEA235"/>
<path d="M10 17.7C9.65833 17.7 9.375 17.4166 9.375 17.075V4.57495C9.375 4.23328 9.65833 3.94995 10 3.94995C10.3417 3.94995 10.625 4.23328 10.625 4.57495V17.075C10.625 17.425 10.3417 17.7 10 17.7Z" fill="#BEA235"/>
<path d="M15.8333 7.29166C15.7083 7.29166 15.5917 7.25832 15.4833 7.18332L14.1667 6.30833L12.85 7.18332C12.6583 7.30832 12.4167 7.32497 12.2084 7.21663C12.0084 7.1083 11.875 6.89999 11.875 6.66666V3.26664C11.875 3.00831 12.0333 2.7833 12.2666 2.6833C13.4166 2.22497 14.675 1.86664 15.7333 1.69997C15.9167 1.66664 16.1 1.72501 16.2417 1.84168C16.3833 1.95834 16.4583 2.13335 16.4583 2.31668V6.66666C16.4583 6.89999 16.3333 7.1083 16.125 7.21663C16.0333 7.26663 15.9333 7.29166 15.8333 7.29166ZM14.1667 4.93331C14.2833 4.93331 14.4083 4.96665 14.5167 5.04165L15.2083 5.49997V3.07499C14.5417 3.22499 13.8167 3.44166 13.125 3.69999V5.49997L13.8167 5.04165C13.925 4.96665 14.05 4.93331 14.1667 4.93331Z" fill="#BEA235"/>
</svg>
