<svg width="24" height="24" viewBox="0 0 24 24" fill="none" xmlns="http://www.w3.org/2000/svg">
<path d="M19.2073 6.36001C18.1673 4.26001 16.1573 2.71001 13.8273 2.20001C11.3873 1.66001 8.88729 2.24001 6.97729 3.78001C5.05729 5.31001 3.96729 7.60001 3.96729 10.05C3.96729 12.64 5.51729 15.35 7.85729 16.92V17.75C7.84729 18.03 7.83729 18.46 8.17729 18.81C8.52729 19.17 9.04729 19.21 9.45728 19.21H14.5873C15.1273 19.21 15.5373 19.06 15.8173 18.78C16.1973 18.39 16.1873 17.89 16.1773 17.62V16.92C19.2773 14.83 21.2273 10.42 19.2073 6.36001Z" fill="white"/>
<path d="M15.2572 21.9999C15.1972 21.9999 15.1272 21.9899 15.0672 21.9699C13.0572 21.3999 10.9472 21.3999 8.93722 21.9699C8.56722 22.0699 8.17722 21.8599 8.07722 21.4899C7.96722 21.1199 8.18722 20.7299 8.55722 20.6299C10.8172 19.9899 13.1972 19.9899 15.4572 20.6299C15.8272 20.7399 16.0472 21.1199 15.9372 21.4899C15.8372 21.7999 15.5572 21.9999 15.2572 21.9999Z" fill="white"/>
</svg>
