<svg xmlns="http://www.w3.org/2000/svg" width="39" height="39" viewBox="0 0 39 39">
  <g id="alert-correct" transform="translate(-24 -730)">
    <rect id="Rectangle_17219" data-name="Rectangle 17219" width="39" height="39" rx="10" transform="translate(24 730)" fill="#3cb65d"/>
    <circle id="Ellipse_1273" data-name="Ellipse 1273" cx="14.5" cy="14.5" r="14.5" transform="translate(29 735)" fill="#fff"/>
    <path id="noun-correct-2394117" d="M5.843,50.777a2.571,2.571,0,0,1-1.79-.724L.435,46.5A1.414,1.414,0,0,1,.45,44.455a1.523,1.523,0,0,1,2.107.013L5.84,47.695l7.616-7.488a1.523,1.523,0,0,1,2.108-.014,1.415,1.415,0,0,1,.014,2.043l-7.95,7.816a2.564,2.564,0,0,1-1.784.724Z" transform="translate(35.494 704.223)" fill="#3cb65d"/>
  </g>
</svg>
