<svg width="18" height="10" viewBox="0 0 18 10" fill="none" xmlns="http://www.w3.org/2000/svg">
<path d="M17.0306 8.46945L9.53055 0.969446C9.4609 0.899714 9.37818 0.844394 9.28713 0.806651C9.19608 0.768908 9.09849 0.749482 8.99993 0.749482C8.90137 0.749482 8.80377 0.768908 8.71272 0.806651C8.62168 0.844394 8.53896 0.899714 8.4693 0.969446L0.969304 8.46945C0.828573 8.61018 0.749512 8.80105 0.749512 9.00007C0.749512 9.19909 0.828573 9.38997 0.969304 9.5307C1.11003 9.67143 1.30091 9.75049 1.49993 9.75049C1.69895 9.75049 1.88982 9.67143 2.03055 9.5307L8.99993 2.56038L15.9693 9.5307C16.039 9.60038 16.1217 9.65565 16.2128 9.69337C16.3038 9.73108 16.4014 9.75049 16.4999 9.75049C16.5985 9.75049 16.6961 9.73108 16.7871 9.69337C16.8781 9.65565 16.9609 9.60038 17.0306 9.5307C17.1002 9.46101 17.1555 9.37829 17.1932 9.28724C17.2309 9.1962 17.2503 9.09862 17.2503 9.00007C17.2503 8.90153 17.2309 8.80394 17.1932 8.7129C17.1555 8.62185 17.1002 8.53913 17.0306 8.46945Z" fill="#090909"/>
</svg>
