<svg width="10" height="17" viewBox="0 0 10 17" fill="none" xmlns="http://www.w3.org/2000/svg">
<path d="M9.39749 15.6024C9.45276 15.6539 9.49709 15.716 9.52783 15.785C9.55857 15.854 9.5751 15.9285 9.57644 16.004C9.57777 16.0795 9.56388 16.1545 9.53559 16.2246C9.50729 16.2946 9.46519 16.3582 9.41177 16.4117C9.35836 16.4651 9.29473 16.5072 9.22469 16.5355C9.15465 16.5638 9.07963 16.5777 9.0041 16.5763C8.92857 16.575 8.85409 16.5585 8.78509 16.5277C8.71609 16.497 8.65399 16.4527 8.60249 16.3974L1.10249 8.89739C0.997156 8.79192 0.937988 8.64895 0.937988 8.49988C0.937988 8.35082 0.997156 8.20785 1.10249 8.10239L8.60249 0.602385C8.70912 0.503025 8.85016 0.448932 8.99588 0.451504C9.14161 0.454075 9.28065 0.513109 9.38371 0.616168C9.48677 0.719228 9.5458 0.858267 9.54837 1.00399C9.55095 1.14972 9.49685 1.29075 9.39749 1.39739L2.29593 8.49988L9.39749 15.6024Z" fill="#090909"/>
</svg>
