<svg width="20" height="18" viewBox="0 0 20 18" fill="none" xmlns="http://www.w3.org/2000/svg">
<path d="M5.67937 3.61153V4.36153C5.94612 4.36153 6.1928 4.21985 6.32721 3.98943L5.67937 3.61153ZM7.19137 1.01953V0.269531C6.92462 0.269531 6.67795 0.411215 6.54354 0.641628L7.19137 1.01953ZM12.8074 1.01953L13.4552 0.641628C13.3208 0.411215 13.0741 0.269531 12.8074 0.269531V1.01953ZM14.3194 3.61153L13.6715 3.98943C13.8059 4.21985 14.0526 4.36153 14.3194 4.36153V3.61153ZM2.10938 14.6275V5.77153H0.609375V14.6275H2.10938ZM3.51937 4.36153H5.67937V2.86153H3.51937V4.36153ZM6.32721 3.98943L7.83921 1.39743L6.54354 0.641628L5.03154 3.23363L6.32721 3.98943ZM7.19137 1.76953H12.8074V0.269531H7.19137V1.76953ZM12.1595 1.39743L13.6715 3.98943L14.9672 3.23363L13.4552 0.641628L12.1595 1.39743ZM14.3194 4.36153H16.4794V2.86153H14.3194V4.36153ZM17.8894 5.77153V14.6275H19.3894V5.77153H17.8894ZM17.8894 14.6275C17.8894 15.4063 17.2581 16.0375 16.4794 16.0375V17.5375C18.0865 17.5375 19.3894 16.2347 19.3894 14.6275H17.8894ZM16.4794 4.36153C17.2581 4.36153 17.8894 4.99281 17.8894 5.77153H19.3894C19.3894 4.16438 18.0865 2.86153 16.4794 2.86153V4.36153ZM2.10938 5.77153C2.10938 4.99281 2.74065 4.36153 3.51937 4.36153V2.86153C1.91223 2.86153 0.609375 4.16438 0.609375 5.77153H2.10938ZM3.51937 16.0375C2.74065 16.0375 2.10938 15.4063 2.10938 14.6275H0.609375C0.609375 16.2347 1.91223 17.5375 3.51937 17.5375V16.0375ZM12.4894 9.65953C12.4894 11.0347 11.3746 12.1495 9.99937 12.1495V13.6495C12.203 13.6495 13.9894 11.8631 13.9894 9.65953H12.4894ZM9.99937 12.1495C8.62418 12.1495 7.50937 11.0347 7.50937 9.65953H6.00937C6.00937 11.8631 7.79576 13.6495 9.99937 13.6495V12.1495ZM7.50937 9.65953C7.50937 8.28434 8.62418 7.16953 9.99937 7.16953V5.66953C7.79576 5.66953 6.00937 7.45591 6.00937 9.65953H7.50937ZM9.99937 7.16953C11.3746 7.16953 12.4894 8.28434 12.4894 9.65953H13.9894C13.9894 7.45591 12.203 5.66953 9.99937 5.66953V7.16953ZM16.4794 16.0375H3.51937V17.5375H16.4794V16.0375Z" fill="#20386B"/>
</svg>
