<svg width="25" height="24" viewBox="0 0 25 24" fill="none" xmlns="http://www.w3.org/2000/svg">
<path d="M11.5312 16.1617C11.6143 16.1647 11.6803 16.2349 11.6768 16.318L11.4786 21.021L11.465 21.1658C11.4574 21.2467 11.3867 21.3068 11.3057 21.3014L5.72336 20.9286C5.39605 20.9023 5.09146 20.7638 4.80961 20.5132C4.52776 20.2626 4.3141 19.9746 4.16863 19.6492C4.06861 19.4118 4.0027 19.17 3.97087 18.9238C3.93905 18.6776 3.95724 18.3918 4.02543 18.0665C4.09362 17.7411 4.14817 17.4993 4.18908 17.3411C4.23 17.1828 4.32774 16.9014 4.4823 16.4969C4.58403 16.2307 4.65622 16.0388 4.69887 15.9211C4.72436 15.8508 4.79551 15.806 4.86974 15.815C5.69262 15.9153 7.9131 16.0308 11.5312 16.1617ZM6.31578 8.43468C6.3709 8.43677 6.42042 8.46894 6.44473 8.51845L8.63443 12.9774C8.70046 13.1119 8.55028 13.2494 8.42212 13.1718L6.96119 12.2876C6.89971 12.2504 6.82043 12.262 6.77253 12.3155C6.23356 12.9182 5.75427 13.5228 5.33468 14.1294C4.89371 14.7669 4.56413 15.3165 4.34592 15.7781C4.12771 16.2397 3.94814 16.6552 3.80722 17.0245C3.66629 17.3938 3.58219 17.6708 3.55491 17.8554C3.53639 17.9495 3.41048 17.9691 3.36426 17.8851L0.90914 13.4237C0.754576 13.1951 0.672748 12.9489 0.663656 12.6851C0.654564 12.4213 0.68184 12.2147 0.745484 12.0652L0.854588 11.8278C1.16001 11.2961 1.6497 10.5133 2.32364 9.47943C2.37026 9.40792 2.34811 9.31179 2.27473 9.2682L1.00704 8.51508C0.873355 8.43566 0.93396 8.23033 1.08935 8.23623L6.31578 8.43468ZM22.8162 15.4005C22.9462 15.3511 23.0676 15.4899 23.0014 15.6121L20.6297 19.9922C20.5206 20.2472 20.3547 20.4516 20.1319 20.6055C19.9092 20.7594 19.7114 20.8495 19.5387 20.8759L19.2932 20.9286C18.6723 20.9878 17.7277 21.0389 16.4592 21.0818C16.3754 21.0847 16.3099 21.1556 16.3141 21.2394L16.3874 22.692C16.3951 22.8452 16.1951 22.9098 16.1117 22.7811L13.3298 18.4881C13.2986 18.44 13.2976 18.3782 13.3272 18.3291L15.8989 14.062C15.9757 13.9346 16.1711 13.9846 16.1773 14.1332L16.2464 15.7854C16.2496 15.8605 16.3079 15.9217 16.3828 15.9283C17.8703 16.0584 19.1132 16.0765 20.1115 15.9825C21.1389 15.8858 21.9117 15.7407 22.4299 15.5473L22.8162 15.4005ZM12.3936 2.97458C12.4466 3.0296 12.4529 3.11504 12.408 3.17678C11.9286 3.83513 10.7759 5.67004 8.95005 8.68149C8.90789 8.75101 8.81746 8.77527 8.74684 8.73498L4.55049 6.34093L4.42334 6.26326C4.35111 6.21915 4.32967 6.12404 4.37597 6.0532L7.35992 1.48715C7.54176 1.21457 7.81452 1.01672 8.1782 0.89362C8.54188 0.770517 8.90556 0.726552 9.26924 0.761724C9.48745 0.77931 9.70793 0.832069 9.93069 0.919999C10.1534 1.00793 10.3444 1.10026 10.5035 1.19698C10.6626 1.2937 10.8513 1.43879 11.0695 1.63224C11.2877 1.82569 11.4513 1.97737 11.5604 2.08728C11.6695 2.19719 11.8332 2.37086 12.0514 2.60827C12.1985 2.76835 12.3126 2.89045 12.3936 2.97458ZM21.2941 7.19003C21.3647 7.15049 21.4539 7.17409 21.4957 7.24337L24.312 11.9069C24.4756 12.2323 24.5325 12.5664 24.4824 12.9093C24.4324 13.2523 24.3074 13.5776 24.1074 13.8854C23.9892 14.0612 23.8392 14.2239 23.6573 14.3734C23.4755 14.5229 23.3028 14.646 23.1391 14.7427C22.9754 14.8394 22.755 14.9362 22.4777 15.0329C22.2003 15.1296 21.9867 15.1999 21.8367 15.2439C21.6867 15.2879 21.4525 15.3494 21.1343 15.4286C20.9113 15.484 20.7419 15.5265 20.6261 15.5561C20.5567 15.5738 20.4849 15.5414 20.4517 15.478C20.076 14.762 18.9185 12.9252 16.979 9.96746C16.9323 9.89629 16.9535 9.79965 17.0264 9.75572L21.1616 7.2642L21.2941 7.19003ZM19.3957 4.01061C19.4372 4.08132 19.5278 4.10588 19.5991 4.06554L20.9048 3.32748C21.0394 3.25137 21.1872 3.40412 21.1066 3.53616L18.453 7.88741C18.4244 7.93418 18.3727 7.96168 18.318 7.95915L13.2239 7.72399C13.0726 7.71701 13.0258 7.51581 13.1584 7.44276L14.6361 6.62885C14.7022 6.59243 14.731 6.51251 14.7028 6.44248C14.4068 5.70617 14.0821 5.01724 13.7289 4.37568C13.3561 3.69861 13.0129 3.15564 12.6992 2.74676C12.3855 2.33788 12.0923 1.98616 11.8196 1.69159C11.5468 1.39702 11.3331 1.19258 11.1786 1.07827C11.1051 1.02392 11.1437 0.90728 11.2351 0.907498L16.4701 0.919999C16.752 0.89362 17.0156 0.939784 17.2611 1.05849C17.5066 1.1772 17.6839 1.3025 17.793 1.43439L17.943 1.63224C18.2842 2.14829 18.7684 2.94108 19.3957 4.01061Z" fill="white"/>
</svg>
