<svg width="14" height="14" viewBox="0 0 14 14" fill="none" xmlns="http://www.w3.org/2000/svg">
<path d="M9.16554 7L13.3577 2.80788C13.9557 2.20988 13.9557 1.24035 13.3577 0.642348C12.7596 0.0443476 11.7902 0.0443476 11.1921 0.642348L7 4.83447L2.80788 0.642348C2.20988 0.0443476 1.24035 0.0443476 0.642348 0.642348C0.0443476 1.24035 0.0443476 2.20988 0.642348 2.80788L4.83447 7L0.642348 11.1921C0.0443476 11.7901 0.0443476 12.7597 0.642348 13.3577C0.941348 13.6566 1.33322 13.8062 1.7251 13.8062C2.11697 13.8062 2.50888 13.6567 2.80785 13.3577L7 9.16554L11.1921 13.3577C11.4911 13.6566 11.883 13.8062 12.2749 13.8062C12.6668 13.8062 13.0586 13.6567 13.3576 13.3577C13.9556 12.7597 13.9556 11.7901 13.3576 11.1921L9.16554 7Z" fill="#6A6A6A"/>
</svg>
