<svg width="26" height="24" viewBox="0 0 26 24" fill="none" xmlns="http://www.w3.org/2000/svg">
<path d="M20.3678 4H1.69925C1.42418 4 1.16038 4.10536 0.965882 4.29289C0.77138 4.48043 0.662109 4.73478 0.662109 5V23C0.662109 23.2652 0.77138 23.5196 0.965882 23.7071C1.16038 23.8946 1.42418 24 1.69925 24H20.3678C20.6429 24 20.9067 23.8946 21.1012 23.7071C21.2957 23.5196 21.405 23.2652 21.405 23V5C21.405 4.73478 21.2957 4.48043 21.1012 4.29289C20.9067 4.10536 20.6429 4 20.3678 4ZM19.3307 22H2.7364V6H19.3307V22ZM25.5535 1V19C25.5535 19.2652 25.4443 19.5196 25.2498 19.7071C25.0553 19.8946 24.7915 20 24.5164 20C24.2413 20 23.9775 19.8946 23.783 19.7071C23.5885 19.5196 23.4793 19.2652 23.4793 19V2H5.84782C5.57276 2 5.30896 1.89464 5.11445 1.70711C4.91995 1.51957 4.81068 1.26522 4.81068 1C4.81068 0.734784 4.91995 0.48043 5.11445 0.292893C5.30896 0.105357 5.57276 0 5.84782 0H24.5164C24.7915 0 25.0553 0.105357 25.2498 0.292893C25.4443 0.48043 25.5535 0.734784 25.5535 1Z" fill="#BEA235"/>
</svg>
