<svg width="25" height="24" viewBox="0 0 25 24" fill="none" xmlns="http://www.w3.org/2000/svg">
<path d="M12.5651 22.7501C12.2631 22.7525 11.9638 22.6926 11.685 22.574C11.4061 22.4555 11.1535 22.2807 10.9421 22.0601L9.45593 20.5401C9.28825 20.4003 9.08442 20.3135 8.86929 20.2901H6.75739C6.45555 20.2905 6.1566 20.23 5.87766 20.112C5.59872 19.9941 5.34527 19.821 5.13184 19.6027C4.9184 19.3844 4.74917 19.1252 4.63384 18.8399C4.51851 18.5546 4.45934 18.2488 4.45973 17.9401V15.7801C4.4369 15.5601 4.35197 15.3516 4.21529 15.1801L2.72914 13.6601C2.51516 13.4426 2.34538 13.184 2.2296 12.8991C2.11381 12.6142 2.0543 12.3087 2.05451 12.0001C2.05222 11.6913 2.11078 11.3851 2.22669 11.0999C2.34259 10.8147 2.51348 10.5563 2.72914 10.3401L4.21529 8.82011C4.35197 8.64861 4.4369 8.44014 4.45973 8.22011V6.06011C4.45934 5.7514 4.51851 5.44563 4.63384 5.16034C4.74917 4.87505 4.9184 4.61583 5.13184 4.39753C5.34527 4.17924 5.59872 4.00615 5.87766 3.88819C6.1566 3.77023 6.45555 3.70972 6.75739 3.71011H8.86929C9.08442 3.68677 9.28825 3.59991 9.45593 3.46011L10.9421 1.94011C11.3809 1.51635 11.9616 1.28027 12.5651 1.28027C13.1686 1.28027 13.7493 1.51635 14.1881 1.94011L15.6743 3.46011C15.842 3.59991 16.0458 3.68677 16.2609 3.71011H18.3728C18.6747 3.70972 18.9736 3.77023 19.2526 3.88819C19.5315 4.00615 19.785 4.17924 19.9984 4.39753C20.2118 4.61583 20.3811 4.87505 20.4964 5.16034C20.6117 5.44563 20.6709 5.7514 20.6705 6.06011V8.22011C20.6933 8.44014 20.7783 8.64861 20.9149 8.82011L22.4011 10.3401C22.6151 10.5576 22.7848 10.8162 22.9006 11.1011C23.0164 11.3861 23.0759 11.6916 23.0757 12.0001C23.078 12.309 23.0195 12.6151 22.9035 12.9003C22.7876 13.1855 22.6168 13.4439 22.4011 13.6601L20.9149 15.1801C20.7783 15.3516 20.6933 15.5601 20.6705 15.7801V17.9401C20.6709 18.2488 20.6117 18.5546 20.4964 18.8399C20.3811 19.1252 20.2118 19.3844 19.9984 19.6027C19.785 19.821 19.5315 19.9941 19.2526 20.112C18.9736 20.23 18.6747 20.2905 18.3728 20.2901H16.2609C16.0458 20.3135 15.842 20.4003 15.6743 20.5401L14.1881 22.0601C13.9768 22.2807 13.7241 22.4555 13.4453 22.574C13.1664 22.6926 12.8671 22.7525 12.5651 22.7501ZM5.25169 14.1201C5.66372 14.5729 5.90312 15.162 5.92632 15.7801V17.9401C5.92619 18.0518 5.9476 18.1624 5.98932 18.2656C6.03104 18.3687 6.09225 18.4625 6.16945 18.5414C6.24665 18.6204 6.33832 18.683 6.4392 18.7257C6.54009 18.7683 6.64822 18.7902 6.75739 18.7901H8.86929C9.47367 18.8138 10.0496 19.0586 10.4923 19.4801L11.9785 21.0001C12.1366 21.1542 12.3467 21.2401 12.5651 21.2401C12.7835 21.2401 12.9936 21.1542 13.1518 21.0001L14.6379 19.4801C15.0806 19.0586 15.6566 18.8138 16.2609 18.7901H18.3728C18.482 18.7902 18.5901 18.7683 18.691 18.7257C18.7919 18.683 18.8836 18.6204 18.9608 18.5414C19.038 18.4625 19.0992 18.3687 19.1409 18.2656C19.1826 18.1624 19.204 18.0518 19.2039 17.9401V15.7801C19.2271 15.162 19.4665 14.5729 19.8785 14.1201L21.3647 12.6001C21.4421 12.5216 21.5036 12.4281 21.5456 12.3251C21.5875 12.2221 21.6091 12.1117 21.6091 12.0001C21.6091 11.8886 21.5875 11.7781 21.5456 11.6751C21.5036 11.5721 21.4421 11.4787 21.3647 11.4001L19.8785 9.88011C19.4665 9.4273 19.2271 8.83824 19.2039 8.22011V6.06011C19.204 5.94845 19.1826 5.83786 19.1409 5.73468C19.0992 5.63149 19.038 5.53774 18.9608 5.45878C18.8836 5.37982 18.7919 5.31722 18.691 5.27455C18.5901 5.23188 18.482 5.20998 18.3728 5.21011H16.2609C15.6566 5.18647 15.0806 4.94161 14.6379 4.52011L13.1518 3.00011C12.9936 2.84605 12.7835 2.76011 12.5651 2.76011C12.3467 2.76011 12.1366 2.84605 11.9785 3.00011L10.4923 4.52011C10.0496 4.94161 9.47367 5.18647 8.86929 5.21011H6.75739C6.64822 5.20998 6.54009 5.23188 6.4392 5.27455C6.33832 5.31722 6.24665 5.37982 6.16945 5.45878C6.09225 5.53774 6.03104 5.63149 5.98932 5.73468C5.9476 5.83786 5.92619 5.94845 5.92632 6.06011V8.22011C5.90312 8.83824 5.66372 9.4273 5.25169 9.88011L3.76554 11.4001C3.68809 11.4787 3.62661 11.5721 3.58466 11.6751C3.5427 11.7781 3.5211 11.8886 3.5211 12.0001C3.5211 12.1117 3.5427 12.2221 3.58466 12.3251C3.62661 12.4281 3.68809 12.5216 3.76554 12.6001L5.25169 14.1201Z" fill="#CDCDCD"/>
<path d="M15.4978 16C15.304 16.0019 15.114 15.945 14.9519 15.8363C14.7899 15.7276 14.663 15.5722 14.5875 15.3896C14.512 15.2071 14.4912 15.0057 14.5279 14.8111C14.5645 14.6164 14.6568 14.4373 14.7932 14.2965C14.9295 14.1556 15.1037 14.0594 15.2936 14.02C15.4835 13.9806 15.6806 13.9998 15.8599 14.0752C16.0391 14.1505 16.1924 14.2787 16.3002 14.4434C16.4081 14.608 16.4657 14.8017 16.4657 15C16.4665 15.1307 16.4421 15.2602 16.3938 15.3813C16.3455 15.5023 16.2744 15.6124 16.1845 15.7053C16.0946 15.7982 15.9877 15.872 15.8698 15.9226C15.752 15.9731 15.6256 15.9994 15.4978 16Z" fill="#CDCDCD"/>
<path d="M9.63912 9.99995C9.44534 10.0019 9.25535 9.94497 9.09328 9.8363C8.93122 9.72763 8.80438 9.57216 8.72887 9.38961C8.65337 9.20707 8.63261 9.0057 8.66922 8.81106C8.70584 8.61643 8.79818 8.43731 8.93452 8.29646C9.07086 8.1556 9.24505 8.05936 9.43497 8.01996C9.6249 7.98056 9.82198 7.99977 10.0012 8.07515C10.1804 8.15054 10.3337 8.2787 10.4416 8.44335C10.5495 8.60801 10.6071 8.80175 10.6071 8.99995C10.6078 9.13065 10.5834 9.26023 10.5352 9.38126C10.4869 9.50229 10.4158 9.6124 10.3259 9.70528C10.236 9.79817 10.129 9.872 10.0112 9.92257C9.89335 9.97313 9.76691 9.99943 9.63912 9.99995Z" fill="#CDCDCD"/>
<path d="M9.62958 15.7518C9.53325 15.7522 9.43782 15.7329 9.34885 15.6951C9.25988 15.6573 9.17915 15.6018 9.11138 15.5318C8.97524 15.3905 8.89893 15.2002 8.89893 15.0018C8.89893 14.8034 8.97524 14.6131 9.11138 14.4718L14.9778 8.4718C15.1168 8.33932 15.3006 8.2672 15.4906 8.27062C15.6806 8.27405 15.8618 8.35276 15.9962 8.49018C16.1305 8.62759 16.2075 8.81298 16.2109 9.00728C16.2142 9.20158 16.1437 9.38962 16.0142 9.5318L10.1478 15.5318C10.08 15.6018 9.99929 15.6573 9.91032 15.6951C9.82135 15.7329 9.72591 15.7522 9.62958 15.7518Z" fill="#CDCDCD"/>
</svg>
