<svg width="21" height="20" viewBox="0 0 21 20" fill="none" xmlns="http://www.w3.org/2000/svg">
<path d="M10.9053 0C5.39527 0 0.905273 4.49 0.905273 10C0.905273 15.51 5.39527 20 10.9053 20C16.4153 20 20.9053 15.51 20.9053 10C20.9053 4.49 16.4153 0 10.9053 0ZM15.6853 7.7L10.0153 13.37C9.87527 13.51 9.68527 13.59 9.48527 13.59C9.28527 13.59 9.09527 13.51 8.95527 13.37L6.12527 10.54C5.83527 10.25 5.83527 9.77 6.12527 9.48C6.41527 9.19 6.89527 9.19 7.18527 9.48L9.48527 11.78L14.6253 6.64C14.9153 6.35 15.3953 6.35 15.6853 6.64C15.9753 6.93 15.9753 7.4 15.6853 7.7Z" fill="#58A047"/>
</svg>
