<svg width="24" height="25" viewBox="0 0 24 25" fill="none" xmlns="http://www.w3.org/2000/svg">
<path d="M21 5.75H3C2.59 5.75 2.25 5.41 2.25 5C2.25 4.59 2.59 4.25 3 4.25H21C21.41 4.25 21.75 4.59 21.75 5C21.75 5.41 21.41 5.75 21 5.75Z" fill="#090909"/>
<path d="M12.47 10.75H3C2.59 10.75 2.25 10.41 2.25 10C2.25 9.59 2.59 9.25 3 9.25H12.47C12.88 9.25 13.22 9.59 13.22 10C13.22 10.41 12.89 10.75 12.47 10.75Z" fill="#090909"/>
<path d="M21 15.75H3C2.59 15.75 2.25 15.41 2.25 15C2.25 14.59 2.59 14.25 3 14.25H21C21.41 14.25 21.75 14.59 21.75 15C21.75 15.41 21.41 15.75 21 15.75Z" fill="#090909"/>
<path d="M12.47 20.75H3C2.59 20.75 2.25 20.41 2.25 20C2.25 19.59 2.59 19.25 3 19.25H12.47C12.88 19.25 13.22 19.59 13.22 20C13.22 20.41 12.89 20.75 12.47 20.75Z" fill="#090909"/>
</svg>
