<svg width="18" height="18" viewBox="0 0 18 18" fill="none" xmlns="http://www.w3.org/2000/svg">
<path d="M15.2566 15.9509H2.74401C2.459 15.9509 2.22266 15.7146 2.22266 15.4296C2.22266 15.1446 2.459 14.9082 2.74401 14.9082H15.2566C15.5416 14.9082 15.7779 15.1446 15.7779 15.4296C15.7779 15.7146 15.5416 15.9509 15.2566 15.9509Z" fill="#BEA235"/>
<path d="M13.8802 3.07724C12.5316 1.72867 11.2109 1.69391 9.82754 3.07724L8.98642 3.91836C8.9169 3.98787 8.8891 4.0991 8.91691 4.19642C9.44521 6.03854 10.9189 7.51224 12.761 8.04055C12.7888 8.0475 12.8166 8.05445 12.8445 8.05445C12.9209 8.05445 12.9904 8.02664 13.046 7.97103L13.8802 7.12991C14.5684 6.44867 14.9021 5.78829 14.9021 5.12095C14.909 4.43277 14.5754 3.76543 13.8802 3.07724Z" fill="#BEA235"/>
<path d="M11.5084 8.67265C11.3068 8.57533 11.1122 8.47801 10.9245 8.36679C10.7715 8.27642 10.6256 8.1791 10.4796 8.07483C10.3614 7.99837 10.2224 7.88714 10.0903 7.77592C10.0764 7.76897 10.0277 7.72726 9.97213 7.67165C9.74273 7.47701 9.48553 7.22676 9.25613 6.9487C9.23528 6.9348 9.20052 6.88614 9.15186 6.82358C9.08235 6.74016 8.96417 6.60113 8.8599 6.44125C8.77649 6.33698 8.67917 6.18405 8.5888 6.03112C8.47758 5.84343 8.38026 5.65574 8.28294 5.4611C8.18562 5.25256 8.10915 5.05097 8.03964 4.86328L3.67415 9.22877C3.58378 9.31914 3.50037 9.49292 3.47951 9.61109L3.10413 12.2735C3.03462 12.7462 3.1667 13.1911 3.45866 13.49C3.70891 13.7333 4.05648 13.8654 4.43185 13.8654C4.51527 13.8654 4.59869 13.8584 4.68211 13.8445L7.35145 13.4691C7.47657 13.4483 7.65036 13.3649 7.73377 13.2745L12.0993 8.909C11.9046 8.83949 11.7169 8.76302 11.5084 8.67265Z" fill="#BEA235"/>
</svg>
