<svg width="24" height="25" viewBox="0 0 24 25" fill="none" xmlns="http://www.w3.org/2000/svg">
<g clip-path="url(#clip0_1_5209)">
<path d="M12 24.1035C18.6274 24.1035 24 18.7309 24 12.1035C24 5.4761 18.6274 0.103516 12 0.103516C5.37258 0.103516 0 5.4761 0 12.1035C0 18.7309 5.37258 24.1035 12 24.1035Z" fill="#3577E5"/>
<path d="M13.12 19.2234V12.7434H15.28L15.6 10.1834H13.12V8.5834C13.12 7.8634 13.36 7.3834 14.4 7.3834H15.76V5.0634C15.52 5.0634 14.72 4.9834 13.84 4.9834C11.92 4.9834 10.56 6.1834 10.56 8.3434V10.1834H8.40002V12.7434H10.56V19.2234H13.12Z" fill="white"/>
</g>
<defs>
<clipPath id="clip0_1_5209">
<rect width="24" height="24" fill="white" transform="translate(0 0.103516)"/>
</clipPath>
</defs>
</svg>
