<svg width="25" height="25" viewBox="0 0 25 25" fill="none" xmlns="http://www.w3.org/2000/svg">
<path d="M24.4998 12.373C24.4998 11.583 24.4283 10.833 24.3057 10.103H12.7604V14.613H19.3708C19.0746 16.093 18.2061 17.343 16.9187 18.193V21.193H20.8625C23.1716 19.103 24.4998 16.023 24.4998 12.373Z" fill="#4285F4"/>
<path d="M12.7599 24.1033C16.0703 24.1033 18.8391 23.0233 20.8621 21.1933L16.9183 18.1933C15.8148 18.9133 14.4151 19.3533 12.7599 19.3533C9.56196 19.3533 6.85442 17.2433 5.8838 14.3933H1.81738V17.4833C3.83015 21.4033 7.96809 24.1033 12.7599 24.1033Z" fill="#34A853"/>
<path d="M5.88466 14.3934C5.62923 13.6734 5.49641 12.9034 5.49641 12.1034C5.49641 11.3034 5.63945 10.5334 5.88466 9.81339V6.72339H1.81825C0.980447 8.34339 0.500244 10.1634 0.500244 12.1034C0.500244 14.0434 0.980447 15.8634 1.81825 17.4834L5.88466 14.3934Z" fill="#FBBC05"/>
<path d="M12.7599 4.85352C14.5683 4.85352 16.1826 5.46352 17.4598 6.65352L20.954 3.23352C18.8391 1.29352 16.0703 0.103516 12.7599 0.103516C7.96809 0.103516 3.83015 2.80352 1.81738 6.72352L5.8838 9.81352C6.85442 6.96352 9.56196 4.85352 12.7599 4.85352Z" fill="#EA4335"/>
</svg>
