<svg width="24" height="24" viewBox="0 0 24 24" fill="none" xmlns="http://www.w3.org/2000/svg">
<path d="M13.2372 22C13.7172 22 14.0972 21.62 14.0972 21.14L14.0972 12.68L10.4272 12.68L11.9972 14.25C12.2872 14.54 12.2872 15.02 11.9972 15.31C11.7072 15.6 11.2272 15.6 10.9372 15.31L8.09717 12.46C7.80717 12.17 7.80717 11.69 8.09717 11.4L10.9372 8.55C11.0872 8.4 11.2772 8.33 11.4672 8.33C11.6572 8.33 11.8472 8.4 11.9972 8.55C12.2872 8.84 12.2872 9.32 11.9972 9.61L10.4372 11.17L14.0972 11.17L14.0972 2.84C14.0972 2.37 13.7172 1.98 13.2372 1.98C7.34717 1.98 3.23717 6.09 3.23717 11.98C3.23717 17.87 7.35717 22 13.2372 22Z" fill="white"/>
<path d="M20.0068 12.6799C20.4168 12.6799 20.7568 12.3399 20.7568 11.9299C20.7568 11.5199 20.4168 11.1799 20.0068 11.1799L14.1068 11.1799L14.1068 12.6799L20.0068 12.6799Z" fill="white"/>
</svg>
