<svg width="25" height="24" viewBox="0 0 25 24" fill="none" xmlns="http://www.w3.org/2000/svg">
<path d="M7.56331 19.7C8.38331 18.82 9.63331 18.89 10.3533 19.85L11.3633 21.2C12.1733 22.27 13.4833 22.27 14.2933 21.2L15.3033 19.85C16.0233 18.89 17.2733 18.82 18.0933 19.7C19.8733 21.6 21.3233 20.97 21.3233 18.31V7.04C21.3333 3.01 20.3933 2 16.6133 2H9.05331C5.27331 2 4.33331 3.01 4.33331 7.04V18.3C4.33331 20.97 5.79331 21.59 7.56331 19.7Z" stroke="#D6D6D6" stroke-width="1.5" stroke-linecap="round" stroke-linejoin="round"/>
<path d="M9.83331 13L15.8333 7" stroke="#D6D6D6" stroke-width="1.5" stroke-linecap="round" stroke-linejoin="round"/>
<path d="M15.8278 13H15.8368" stroke="#D6D6D6" stroke-width="2" stroke-linecap="round" stroke-linejoin="round"/>
<path d="M9.82782 7.5H9.8368" stroke="#D6D6D6" stroke-width="2" stroke-linecap="round" stroke-linejoin="round"/>
</svg>
