<svg width="20" height="20" viewBox="0 0 20 20" fill="none" xmlns="http://www.w3.org/2000/svg">
<path fill-rule="evenodd" clip-rule="evenodd" d="M10 19.5999C12.5461 19.5999 14.9879 18.5885 16.7882 16.7881C18.5886 14.9878 19.6 12.546 19.6 9.9999C19.6 7.45382 18.5886 5.01203 16.7882 3.21168C14.9879 1.41133 12.5461 0.399902 10 0.399902C7.45395 0.399902 5.01215 1.41133 3.2118 3.21168C1.41145 5.01203 0.400024 7.45382 0.400024 9.9999C0.400024 12.546 1.41145 14.9878 3.2118 16.7881C5.01215 18.5885 7.45395 19.5999 10 19.5999ZM11.2 6.3999C11.2 6.08164 11.0736 5.77642 10.8486 5.55137C10.6235 5.32633 10.3183 5.1999 10 5.1999C9.68176 5.1999 9.37654 5.32633 9.1515 5.55137C8.92645 5.77642 8.80002 6.08164 8.80002 6.3999V8.7999H6.40002C6.08176 8.7999 5.77654 8.92633 5.5515 9.15137C5.32645 9.37642 5.20002 9.68164 5.20002 9.9999C5.20002 10.3182 5.32645 10.6234 5.5515 10.8484C5.77654 11.0735 6.08176 11.1999 6.40002 11.1999H8.80002V13.5999C8.80002 13.9182 8.92645 14.2234 9.1515 14.4484C9.37654 14.6735 9.68176 14.7999 10 14.7999C10.3183 14.7999 10.6235 14.6735 10.8486 14.4484C11.0736 14.2234 11.2 13.9182 11.2 13.5999V11.1999H13.6C13.9183 11.1999 14.2235 11.0735 14.4486 10.8484C14.6736 10.6234 14.8 10.3182 14.8 9.9999C14.8 9.68164 14.6736 9.37642 14.4486 9.15137C14.2235 8.92633 13.9183 8.7999 13.6 8.7999H11.2V6.3999Z" fill="#BEA235"/>
</svg>
