<svg width="25" height="24" viewBox="0 0 25 24" fill="none" xmlns="http://www.w3.org/2000/svg">
<path d="M14.7021 22.139C14.7021 22.1385 14.702 22.138 14.7018 22.1375L14.4237 21.6385C13.5841 20.1315 11.4162 20.1315 10.5766 21.6385L10.2981 22.1382C10.0992 22.4949 9.77188 22.7551 9.38798 22.8618C9.00409 22.9685 8.59503 22.9129 8.25065 22.7072L5.65115 21.1525C5.30664 20.9463 5.05525 20.6067 4.9523 20.2085C4.84934 19.8102 4.90324 19.3858 5.10215 19.0287L5.44037 18.4217C6.27597 16.9219 5.19167 15.0766 3.47486 15.0766H2.90015C2.50232 15.0766 2.12079 14.9128 1.83949 14.6212C1.55818 14.3296 1.40015 13.9342 1.40015 13.5218V10.4123C1.40015 10 1.55818 9.60455 1.83949 9.31298C2.12079 9.02141 2.50232 8.85761 2.90015 8.85761H3.47486C5.19167 8.85761 6.27597 7.01223 5.44037 5.5125L5.10215 4.90546C5.00343 4.72858 4.93931 4.53326 4.91348 4.33068C4.88764 4.12809 4.90059 3.92222 4.95158 3.72483C5.00257 3.52744 5.0906 3.3424 5.21063 3.1803C5.33067 3.0182 5.48036 2.88221 5.65115 2.78012L8.24915 1.22538C8.59366 1.01922 9.00308 0.963351 9.38734 1.07007C9.7716 1.17678 10.0992 1.43734 10.2981 1.79442L10.5351 2.21991C11.3928 3.75994 13.608 3.76027 14.4662 2.22048L14.7036 1.79442C14.9026 1.43776 15.2299 1.1775 15.6138 1.07081C15.9977 0.96412 16.4068 1.01971 16.7511 1.22538L19.3506 2.78012C19.6947 2.9863 19.9458 3.32559 20.0488 3.7235C20.1517 4.12141 20.0981 4.54539 19.8996 4.90235L19.5597 5.51258C18.7242 7.01232 19.8085 8.85761 21.5252 8.85761H22.1001C22.498 8.85761 22.8795 9.02141 23.1608 9.31298C23.4421 9.60455 23.6001 10 23.6001 10.4123V13.5218C23.6001 13.9342 23.4421 14.3296 23.1608 14.6212C22.8795 14.9128 22.498 15.0766 22.1001 15.0766H21.5247C19.8081 15.0766 18.7237 16.9216 19.559 18.4214L19.8981 19.0303C20.097 19.3874 20.151 19.8117 20.048 20.21C19.945 20.6083 19.6937 20.9479 19.3491 21.1541L16.7511 22.7088C16.4066 22.915 15.9972 22.9708 15.6129 22.8641C15.2289 22.7575 14.9015 22.4972 14.7025 22.1404C14.7023 22.14 14.7021 22.1395 14.7021 22.139V22.139Z" stroke="#D6D6D6" stroke-width="1.5" stroke-linejoin="round"/>
<circle cx="12.5" cy="12" r="3.75" stroke="#D6D6D6" stroke-width="1.5"/>
</svg>
