<svg width="18" height="17" viewBox="0 0 18 17" fill="none" xmlns="http://www.w3.org/2000/svg">
<path d="M16.7363 6.39649L11.7773 5.67579L9.56049 1.18165C9.49994 1.0586 9.40034 0.958992 9.27729 0.898445C8.96869 0.746101 8.59369 0.873054 8.4394 1.18165L6.2226 5.67579L1.26362 6.39649C1.1269 6.41602 1.0019 6.48048 0.906195 6.57813C0.790495 6.69705 0.726739 6.85704 0.728937 7.02294C0.731134 7.18884 0.799105 7.34709 0.917914 7.4629L4.5058 10.9609L3.65815 15.9004C3.63827 16.0153 3.65099 16.1335 3.69485 16.2415C3.73872 16.3496 3.81198 16.4432 3.90633 16.5117C4.00068 16.5802 4.11234 16.6209 4.22866 16.6292C4.34497 16.6375 4.46128 16.613 4.5644 16.5586L8.99994 14.2266L13.4355 16.5586C13.5566 16.6231 13.6972 16.6445 13.832 16.6211C14.1718 16.5625 14.4003 16.2402 14.3417 15.9004L13.4941 10.9609L17.082 7.4629C17.1796 7.3672 17.2441 7.24219 17.2636 7.10548C17.3164 6.76368 17.0781 6.44727 16.7363 6.39649Z" fill="#BEA235"/>
</svg>
