<svg width="20" height="20" viewBox="0 0 20 20" fill="none" xmlns="http://www.w3.org/2000/svg">
<path d="M13.6501 18.9582H2.7001C1.90843 18.9582 1.17511 18.5916 0.700106 17.9499C0.216773 17.2999 0.075113 16.4832 0.31678 15.7082L3.82511 4.43317C4.14177 3.38317 5.10845 2.6665 6.20845 2.6665H16.4584C17.4668 2.6665 18.3751 3.26658 18.7585 4.19991C18.9668 4.68324 19.0084 5.23326 18.8834 5.77492L16.0751 17.0498C15.8084 18.1748 14.8084 18.9582 13.6501 18.9582ZM6.21677 3.92485C5.6751 3.92485 5.18344 4.28323 5.02511 4.80823L1.51678 16.0833C1.40012 16.4749 1.46677 16.8832 1.71677 17.2166C1.95011 17.5332 2.31678 17.7166 2.70844 17.7166H13.6585C14.2335 17.7166 14.7334 17.3249 14.8668 16.7665L17.6751 5.48317C17.7418 5.20817 17.7251 4.93322 17.6168 4.69155C17.4168 4.21655 16.9751 3.9165 16.4668 3.9165H6.21677V3.92485Z" fill="#BEA235"/>
<path d="M17.3163 18.9584H13.333C12.9913 18.9584 12.708 18.6751 12.708 18.3334C12.708 17.9917 12.9913 17.7084 13.333 17.7084H17.3163C17.658 17.7084 17.9747 17.5667 18.208 17.3167C18.4413 17.0667 18.558 16.7334 18.533 16.3918L17.708 5.04176C17.683 4.7001 17.9413 4.40005 18.283 4.37505C18.6247 4.35839 18.9247 4.60834 18.9497 4.95001L19.7747 16.3001C19.8247 16.9834 19.583 17.6668 19.1163 18.1668C18.658 18.6751 17.9997 18.9584 17.3163 18.9584Z" fill="#BEA235"/>
<path d="M8.06615 5.94159C8.01615 5.94159 7.96615 5.93324 7.91615 5.92491C7.58282 5.84157 7.3745 5.50821 7.45783 5.16655L8.32448 1.56659C8.40781 1.23326 8.74115 1.02488 9.08281 1.10822C9.41615 1.19155 9.6245 1.52491 9.54116 1.86658L8.67449 5.46664C8.60782 5.74997 8.34948 5.94159 8.06615 5.94159Z" fill="#BEA235"/>
<path d="M13.6502 5.95003C13.6085 5.95003 13.5585 5.95001 13.5169 5.93335C13.1835 5.85835 12.9669 5.525 13.0335 5.19167L13.8168 1.57503C13.8918 1.23336 14.2252 1.02507 14.5585 1.09173C14.8919 1.1584 15.1085 1.49998 15.0418 1.83331L14.2585 5.45005C14.2002 5.75005 13.9419 5.95003 13.6502 5.95003Z" fill="#BEA235"/>
<path d="M13.0837 10.625H6.41699C6.07533 10.625 5.79199 10.3417 5.79199 10C5.79199 9.65833 6.07533 9.375 6.41699 9.375H13.0837C13.4253 9.375 13.7087 9.65833 13.7087 10C13.7087 10.3417 13.4253 10.625 13.0837 10.625Z" fill="#BEA235"/>
<path d="M12.2507 13.9583H5.58398C5.24232 13.9583 4.95898 13.6749 4.95898 13.3333C4.95898 12.9916 5.24232 12.7083 5.58398 12.7083H12.2507C12.5923 12.7083 12.8757 12.9916 12.8757 13.3333C12.8757 13.6749 12.5923 13.9583 12.2507 13.9583Z" fill="#BEA235"/>
</svg>
