<svg width="25" height="24" viewBox="0 0 25 24" fill="none" xmlns="http://www.w3.org/2000/svg">
<path d="M21.4641 16.08C21.2241 18.75 19.2941 20.5 16.4941 20.5H7.49414C4.73414 20.5 2.49414 18.26 2.49414 15.5V8.5C2.49414 5.78 4.13414 3.88 6.68414 3.56C6.94414 3.52 7.21414 3.5 7.49414 3.5H16.4941C16.7541 3.5 17.0041 3.51 17.2441 3.55C19.6341 3.83 21.2541 5.5 21.4641 7.92C21.4941 8.21 21.2541 8.45 20.9641 8.45H19.4141C18.4541 8.45 17.5641 8.82 16.9241 9.48C16.1641 10.22 15.7841 11.26 15.8741 12.3C16.0341 14.12 17.6341 15.55 19.5341 15.55H20.9641C21.2541 15.55 21.4941 15.79 21.4641 16.08Z" fill="white"/>
<path d="M22.4944 10.97V13.03C22.4944 13.58 22.0544 14.03 21.4944 14.05H19.5344C18.4544 14.05 17.4644 13.26 17.3744 12.18C17.3144 11.55 17.5544 10.96 17.9744 10.55C18.3444 10.17 18.8544 9.94995 19.4144 9.94995H21.4944C22.0544 9.96995 22.4944 10.42 22.4944 10.97Z" fill="white"/>
</svg>
